<?xml version="1.0" encoding="UTF-8"?><svg width="1440" height="128" viewBox="0 0 1440 128" version="1.1" xmlns="http://www.w3.org/2000/svg" xmlns:xlink="http://www.w3.org/1999/xlink"><title>molecule / wave / wave-black</title><desc>Created with Sketch.</desc><g id="molecule-/-wave-/-wave-black" stroke="none" stroke-width="1" fill="none" fill-rule="evenodd"><path d="M0,123.007765 L0,88.223459 C133.435574,74.6749028 160.625975,42.3825539 290.24007,42.3825539 C454.262797,42.3825539 439.518047,79.587859 566.326398,79.587859 C693.13475,79.587859 710.123892,1.16529009e-12 832.20865,1.16529009e-12 C954.293407,1.16529009e-12 979.453428,94.0959705 1073.71072,95.0077646 C1139.4157,95.0077646 1191.18116,9.99609375 1259.29687,9.99609375 C1327.41259,9.99609375 1368.64252,95.7616731 1440,88.223459 C1440,91.0348959 1440,102.629664 1440,123.007765 C480.39189,123.007765 0.391890038,123.007765 0,123.007765 Z" id="yellow" fill="#FFC80A" transform="translate(720.000000, 61.503882) scale(-1, 1) rotate(-180.000000) translate(-720.000000, -61.503882)"/><path d="M0,113.011671 L0,46.209719 C39.0179223,32.1111909 76.3007086,19.5997876 128.848009,19.5997876 C247.498306,19.5997876 250.700173,82.0502505 362.894078,82.0502505 C475.087983,82.0502505 495.484375,27.7812021 587.875,27.7812021 C680.265625,27.7812021 710.742187,82.0502505 797.109375,82.0502505 C883.476562,82.0502505 917.861425,9.9475983e-13 1048.19622,9.9475983e-13 C1178.53101,9.9475983e-13 1248.80633,122.710038 1440,46.209719 L1440,113.011671 L0,113.011671 Z" id="magenta" fill="#FF46C8" transform="translate(720.000000, 56.505835) scale(-1, 1) rotate(-180.000000) translate(-720.000000, -56.505835)"/><path d="M174.060342,99.0082569 C289.799184,99.0082569 378.992142,0.908070057 549.496071,0.00685261716 C720,-0.894364823 842.549637,87.3923382 951.223239,90.039093 C1059.89684,92.6858479 1102.86516,74.9958315 1193.17399,51.3276205 C1283.48282,27.6594094 1394.57819,62.771373 1440,74.2440943 C1440,86.2131653 1440,103.80357 1440,127.015309 L1.5616024e-09,127.015309 L1.5616024e-09,74.2440943 C69.3121979,90.7535361 127.332312,99.0082569 174.060342,99.0082569 Z" id="cyan" fill="#00BEFF" transform="translate(720.000000, 63.507655) scale(-1, 1) rotate(-180.000000) translate(-720.000000, -63.507655)"/><path d="M1440,1.08713039e-12 L1440,34.7843056 C1401.47211,30.7142136 1371.72706,53.8442413 1341.79091,75.9887044 C1295.03335,84.2428723 1241.16825,88.266063 1193.17399,75.6876888 L1189.12775,74.6230269 C1179.09066,71.9717756 1169.63522,69.3994674 1160.59877,66.9267608 L1156.40207,63.9377053 C1129.82156,45.0858252 1103.16694,28 1073.71072,28 C1054.43,28.1865113 1038.04047,32.2720735 1023.12115,38.6537481 C1002.15917,36.9428576 978.807892,36.3043897 951.223239,36.9762162 C884.698481,38.5964324 812.973955,72.3085082 728.232393,98.0083787 C682.129153,74.6722279 645.789515,43.4199055 566.326398,43.4199055 C455.853207,43.4199055 452.81296,71.6571922 345.412474,78.9321165 L341.832739,77.418734 C283.507297,52.6973637 232.124415,28.0070523 174.060342,28.0070523 C139.410785,28.0070523 98.5523296,32.5458709 51.4849764,41.6235081 C36.5550806,39.1334166 20.1410403,36.8654551 1.68359441,34.9568238 L-4.54747351e-13,34.7843056 L-4.54747351e-13,1.08713039e-12 L1440,1.08713039e-12 Z" id="green" fill="#00960A"/><path d="M1440,-2.89901436e-12 L1440,34.7843056 C1418.43609,32.5062909 1399.62349,38.7489787 1381.9888,48.5705657 C1294.77578,29.1682584 1235.15233,54.5186753 1177.41446,78.9014777 C1143.64979,55.2561779 1110.91488,28 1073.71072,28 C1016.66086,28.5518695 984.923793,63.2404349 941.687937,90.540594 C888.032282,66.249 853.74892,30.9614204 797.109375,30.9614204 C743.379408,30.9614204 711.28034,51.9647327 672.448269,67.8385794 L670.784865,67.0241189 C643.531565,53.7791196 612.076056,43.4199055 566.326398,43.4199055 L563.724549,43.425183 C521.553711,43.5971824 495.275087,47.9539224 472.551315,53.629428 L470.021187,52.5595658 C442.634528,41.0688314 411.312778,30.9614204 362.894078,30.9614204 C288.872285,30.9614204 262.293853,58.1456065 218.701472,76.6435417 C144.744906,67.6823051 105.50276,45.8587243 3.12187803,35.1067106 L0,34.7843056 L0,-2.89901436e-12 L1440,-2.89901436e-12 Z" id="red" fill="#FF3607"/><path d="M1440,-7.38964445e-13 L1440,52.7714639 L1438.53844,53.1426675 C1432.60912,54.6583262 1425.64029,56.5394572 1417.80779,58.6184464 C1316.33613,24.4756955 1250.26611,48.3569972 1188.17232,74.3698871 L1183.00782,72.9970382 C1099.48015,50.6952752 1055.73792,34.4307522 951.223239,36.9762162 C925.079625,37.6129462 898.13295,43.2059982 869.908752,51.3212894 C847.747227,39.6240685 825.172379,30.9614204 797.109375,30.9614204 C710.742188,30.9614204 680.265625,85.2304688 587.875,85.2304688 C495.484375,85.2304688 475.087983,30.9614204 362.894078,30.9614204 C322.733639,30.9614204 296.538592,38.9633374 274.01483,49.2385091 L271.550505,48.3156958 C239.525863,36.4079687 207.929745,28.0070523 174.060342,28.0070523 C127.799592,28.0070523 70.4714709,36.0975043 2.07597831,52.2784081 L1.56114766e-09,52.771215 L1.56114766e-09,-7.38964445e-13 L1440,-7.38964445e-13 Z" id="blue" fill="#0032C8"/><path d="M1440,-1 L1440,34.7843056 C1418.43609,32.5062909 1399.62349,38.7489787 1381.9888,48.5705657 C1300.17812,30.3698374 1242.64517,51.5496293 1188.17232,74.3698871 L1184.32774,73.3492363 C1176.05879,71.1465979 1168.18128,69.001615 1160.59877,66.9267608 L1156.40207,63.9377053 C1129.82156,45.0858252 1103.16694,28 1073.71072,28 C1054.43,28.1865113 1038.04047,32.2720735 1023.12115,38.6537481 C1002.15917,36.9428576 978.807892,36.3043897 951.223239,36.9762162 C925.079625,37.6129462 898.13295,43.2059982 869.908752,51.3212894 C847.747227,39.6240685 825.172379,30.9614204 797.109375,30.9614204 C743.379408,30.9614204 711.28034,51.9647327 672.448269,67.8385794 L670.784865,67.0241189 C643.531565,53.7791196 612.076056,43.4199055 566.326398,43.4199055 L563.724549,43.425183 C521.553711,43.5971824 495.275087,47.9539224 472.551315,53.629428 L470.021187,52.5595658 C442.634528,41.0688314 411.312778,30.9614204 362.894078,30.9614204 C322.733639,30.9614204 296.538592,38.9633374 274.01483,49.2385091 L271.550505,48.3156958 C239.525863,36.4079687 207.929745,28.0070523 174.060342,28.0070523 C139.410785,28.0070523 98.5523296,32.5458709 51.4849764,41.6235081 C36.5550806,39.1334166 20.1410403,36.8654551 1.68359441,34.9568238 L0,34.7843056 L0,-1 L1440,-1 Z" id="black" fill="#191919"/></g></svg>